<svg width="437" height="294" viewBox="0 0 437 294" fill="none" xmlns="http://www.w3.org/2000/svg">
<path d="M331.259 150.836C328.66 150.836 326.085 150.917 323.536 151.075C311.241 151.839 300.049 143.971 296.677 132.123C279.797 72.8133 225.226 29.3793 160.502 29.3789C82.0777 29.3785 18.9108 92.5542 18.922 170.979C18.9332 249.162 82.3163 312.536 160.501 312.536C196.078 312.536 228.587 299.411 253.458 277.744C271.48 296.252 299.626 308.164 331.259 308.164C385.66 308.164 429.759 272.945 429.759 229.5C429.759 186.055 385.66 150.836 331.259 150.836Z" fill="#F7B2B2"/>
<path d="M249.329 291.139L249.757 290.266C250.384 288.989 250.957 287.66 251.458 286.311C253.591 280.612 253.08 275.542 252.373 270.836C251.947 268.033 251.169 265.284 250.416 262.626C249.374 258.956 248.39 255.492 248.199 251.859C247.992 247.803 248.812 244.233 250.78 240.623C252.407 237.625 253.981 235.432 255.648 233.109C256.729 231.595 257.845 230.03 259.022 228.199C261.744 223.963 262.758 217.93 262.039 210.269L261.956 209.446C261.391 203.468 260.903 198.305 264.535 192.791C265.023 192.042 265.78 191.193 266.581 190.294C267.865 188.853 269.621 186.88 269.787 185.656C269.898 184.824 269.74 184.093 269.383 183.795C269.223 183.659 268.988 183.59 268.684 183.59C268.391 183.59 268.049 183.652 267.667 183.774C262.001 185.567 256.119 189.358 253.361 192.995C250.833 196.324 250.516 199.069 250.115 202.544L250.102 202.651C249.968 203.787 249.835 204.906 249.627 206.137C248.365 213.552 242.86 218.97 237.536 224.21L237.457 224.287C234.746 226.955 231.943 229.713 229.786 232.677C226.332 237.427 224.393 242.108 224.022 246.591C223.937 247.587 223.952 248.671 224.07 249.905C224.184 251.174 224.39 252.462 224.59 253.707C224.978 256.103 225.416 258.802 225.206 261.45C224.61 269.059 218.755 273.369 213.093 277.538L212.985 277.617C210.571 279.401 208.074 281.245 206 283.338C203.809 285.55 201.626 288.481 200.437 290.807L200.269 291.139H197.515L197.917 290.278C199.424 287.039 202.259 283.57 204.229 281.584C206.435 279.355 209.007 277.456 211.494 275.619L211.614 275.53C217.067 271.521 222.218 267.733 222.722 261.261C222.905 258.947 222.522 256.544 222.15 254.22L222.109 253.971C221.898 252.654 221.679 251.292 221.572 249.915C221.456 248.633 221.445 247.479 221.539 246.387C221.953 241.442 224.05 236.335 227.77 231.21C230.05 228.086 232.931 225.248 235.717 222.504L235.768 222.453C241.05 217.26 246.038 212.354 247.173 205.72C247.362 204.616 247.483 203.587 247.6 202.592L247.639 202.252C248.072 198.544 248.447 195.341 251.377 191.481C254.94 186.793 261.746 183.036 266.911 181.393C267.535 181.196 268.129 181.096 268.675 181.096C269.581 181.096 270.359 181.361 270.988 181.883C272.027 182.768 272.49 184.265 272.259 185.991C271.995 187.961 270.115 190.074 268.457 191.939C267.779 192.695 267.021 193.542 266.615 194.162C263.464 198.944 263.916 203.694 264.439 209.194L264.516 210.037C265.291 218.267 264.15 224.831 261.124 229.547C259.886 231.464 258.784 233.009 257.67 234.553C256.051 236.816 254.532 238.938 252.962 241.812C251.215 245.028 250.5 248.229 250.714 251.887C250.903 255.214 251.825 258.463 252.802 261.904L252.832 262.008C253.598 264.719 254.39 267.523 254.833 270.465C255.393 274.177 256.331 280.391 253.794 287.187C253.344 288.389 252.83 289.602 252.265 290.791L252.1 291.139H249.329Z" fill="#F09E9E"/>
<path d="M231.541 291.139L232.052 290.234C232.983 288.593 233.993 286.987 234.969 285.437C237.432 281.524 239.751 277.84 240.574 274.256C241.574 269.901 240.712 263.866 239.878 258.03C239.178 253.122 238.516 248.486 238.996 245.043C240.089 237.204 245.028 231.358 249.386 226.199C251.916 223.206 254.304 220.38 255.438 217.67C256.297 215.617 256.303 212.762 256.31 209.455C256.324 203.777 256.341 196.713 261.125 190.819C261.342 190.551 261.664 190.398 262.009 190.398C262.27 190.398 262.525 190.488 262.728 190.654C262.963 190.844 263.11 191.116 263.143 191.419C263.174 191.723 263.085 192.019 262.893 192.256C258.615 197.527 258.601 203.864 258.589 209.455C258.58 213.014 258.573 216.08 257.54 218.55C256.272 221.577 253.78 224.529 251.14 227.655C246.972 232.587 242.255 238.168 241.253 245.359C240.818 248.481 241.457 252.963 242.134 257.707C242.997 263.756 243.888 270.004 242.795 274.766C241.885 278.729 239.351 282.753 236.9 286.647C235.964 288.132 235.125 289.474 234.336 290.835L234.162 291.139H231.541Z" fill="#F09E9E"/>
<path d="M217.122 290.286C222.814 284.842 227.508 278.293 231.783 270.22C232.501 268.865 233.155 267.447 233.76 265.988L223.539 267.26L235.662 260.706C240.723 244.346 239.859 224.509 235.135 215.64C220.849 220.5 207.521 230.861 197.152 250.248C192.61 258.739 190.832 276.618 191.76 290.286H217.122Z" fill="#D98282"/>
<path d="M112.338 290.283H109.334C108.544 289.734 107.761 289.173 106.978 288.605C106.352 288.148 105.726 287.676 105.106 287.207C97.9027 281.777 90.998 275.506 84.898 268.501C84.1076 267.59 83.3249 266.665 82.5633 265.725C79.2321 261.647 76.1783 257.334 73.5089 252.806C70.8255 248.258 68.5264 243.489 66.7114 238.527C62.6683 227.9 61.0171 214.397 61.586 202.14L66.8039 204.425L68.8255 205.315L71.6226 206.539L68.9464 203.87V203.863L66.9961 201.919L61.9708 196.901C62.4761 191.975 63.3658 187.37 64.6258 183.391C64.9317 182.416 65.2664 181.483 65.6152 180.586C66.462 178.444 67.4302 176.536 68.5264 174.935C72.0711 176.594 75.5305 178.544 78.8761 180.814C80.0505 181.604 81.2108 182.437 82.3495 183.312V183.32C93.7458 192.025 103.697 204.83 111.092 223.266C113.833 230.114 115.648 241.268 116.26 252.806C117.043 267.32 115.911 282.431 112.338 290.283Z" fill="#D98282"/>
<path d="M104.264 290.483V290.282C104.264 290.138 104.284 290.01 104.325 289.894C104.523 289.265 104.72 288.349 104.907 287.175C105.929 280.792 106.686 265.494 103.911 257.37C102.098 252.043 99.8994 248.589 98.1861 246.175C97.4033 245.08 96.6005 244.039 95.8242 243.032L95.4799 242.588C92.8085 239.16 90.2852 235.922 88.7485 230.928C86.4735 223.608 85.4801 214.192 84.604 205.884C83.955 199.65 83.3416 193.763 82.283 189.951C81.4662 186.986 80.2598 183.943 78.6971 180.907C72.049 168.028 60.1874 158.039 54.4186 158.039C53.2194 158.039 52.2308 158.471 51.4809 159.323C49.9078 161.118 49.366 164.57 49.9566 169.043C50.4075 172.473 52.1588 175.284 54.0126 178.259C56.1346 181.665 58.3264 185.182 58.4849 189.705C58.6435 194.048 57.7835 198.467 56.873 203.146C55.7939 208.752 54.5707 215.107 54.9827 222.08C55.3931 228.971 58.7408 234.86 61.1848 239.161C62.1433 240.842 62.8572 242.117 63.3097 243.213C63.624 243.957 63.9215 244.777 64.1917 245.649C66.6129 253.567 64.5485 260.534 62.3627 267.911C61.1728 271.94 59.9424 276.106 59.4879 280.495C59.4311 281.101 59.369 281.819 59.3394 282.547C59.3322 282.709 59.3254 282.869 59.3254 283.03C59.2257 285.511 59.2613 287.916 59.4311 290.19L59.4319 290.483H56.9571L56.9438 290.298C56.7569 287.768 56.7228 285.123 56.8429 282.437C56.8505 282.187 56.8646 281.941 56.887 281.694C56.9334 280.905 57.0127 280.081 57.1296 279.182C57.6693 275.012 58.8249 271.092 59.942 267.301L59.9684 267.212C62.0736 260.091 64.0632 253.364 61.6937 246.013C61.4891 245.38 61.2593 244.758 61.009 244.165C60.6014 243.184 59.8515 241.862 59.1264 240.584L59.0203 240.401C56.4538 235.887 52.9399 229.707 52.4943 222.232C52.0663 214.954 53.3167 208.451 54.4198 202.713C55.311 198.123 56.1459 193.82 55.9965 189.798C55.8628 185.943 53.9469 182.863 51.9193 179.602C49.9822 176.497 48.0023 173.323 47.4846 169.374C46.8007 164.162 47.5563 160.007 49.6115 157.675C50.8523 156.265 52.4699 155.55 54.4186 155.55C61.6644 155.55 76.0617 168.323 82.5348 183.232L82.5512 183.27V183.278C83.4233 185.282 84.142 187.301 84.6869 189.281C85.7888 193.274 86.415 199.244 87.0773 205.564C87.9449 213.791 88.9271 223.101 91.1264 230.196C92.5314 234.726 94.9165 237.801 97.4418 241.056C98.4544 242.362 99.5943 243.83 100.731 245.48C103.143 249.014 104.906 252.535 106.279 256.563C109.255 265.311 108.459 281.843 107.176 288.641C107.053 289.31 106.922 289.878 106.788 290.339L106.744 290.483H104.264Z" fill="url(#paint0_linear_254_6806)"/>
<path d="M79.005 290.483L79.1724 290.066C80.9029 285.394 83.6199 276.015 82.3631 265.75C82.249 264.767 82.0912 263.769 81.8954 262.783C81.0722 258.588 76.8369 249.876 73.1001 242.19C70.0295 235.878 67.3785 230.428 66.7847 227.889C65.1579 220.965 65.7837 213.843 66.3891 206.956L66.4544 206.195C66.506 205.602 66.5573 205.007 66.6025 204.409C66.6742 203.577 66.7443 202.738 66.7943 201.907C67.1074 197.375 67.0946 193.964 66.7527 190.845C66.526 188.819 65.7481 186.339 64.442 183.474C61.8359 177.704 57.4908 171.205 54.3405 167.324C54.1307 167.073 54.0334 166.747 54.0683 166.408C54.1031 166.075 54.2633 165.779 54.5207 165.574C54.7429 165.391 55.0156 165.295 55.3083 165.295C55.6834 165.295 56.0362 165.462 56.2752 165.752C58.3493 168.311 62.6875 174.295 65.7949 180.496C67.7781 184.446 68.9348 187.838 69.2331 190.58C69.7252 195.12 69.4825 199.654 69.1474 203.878L68.8691 207.168C68.2805 213.862 67.6724 220.785 69.2071 227.313C69.73 229.545 72.4046 235.054 75.2373 240.887L75.3675 241.154C79.162 248.965 83.4642 257.818 84.3414 262.298C84.7406 264.315 84.9957 266.398 85.0998 268.492C85.583 277.363 83.5254 285.276 81.7137 290.351L81.6664 290.483H79.005Z" fill="url(#paint1_linear_254_6806)"/>
<path d="M24.9971 194.42C23.8888 188.572 27.0102 183.455 32.3258 182.675C38.192 181.814 44.2855 184.647 48.0156 189.349C52.0831 194.477 51.0317 202.754 55.6642 207.291C59.486 211.035 67.6964 210.644 72.6816 217.873C77.4927 224.849 74.0798 232.783 80.4832 242.883C85.5506 250.876 96.4052 253.064 103.848 263.839C108.983 271.274 108.16 286.538 106.262 290.283H40.3176C39.9196 288.345 39.7247 286.287 39.7503 284.099C39.8808 272.916 49.9939 264.128 41.0207 253.3C38.3501 250.077 29.0306 243.92 27.6665 236.211C25.8611 226.011 31.9635 217.835 30.9797 210.495C30.1317 204.165 26.1742 200.631 24.9971 194.42Z" fill="url(#paint2_linear_254_6806)"/>
<path d="M89.0113 290.483L88.9516 290.391C86.7034 286.911 83.6464 281.952 81.8539 278.089C80.0801 274.27 78.6852 270.037 77.3359 265.944C75.2474 259.608 73.2795 253.638 70.1104 249.332C66.6602 244.647 61.8395 241.726 57.1782 238.902C52.8351 236.269 48.7379 233.786 46.1214 230.089C42.6056 225.12 42.9002 220.695 43.241 215.572C43.4051 213.11 43.5725 210.577 43.3475 207.68C42.7421 199.912 36.5741 193.154 31.0034 189.421C30.6431 189.18 30.3976 188.812 30.3136 188.386C30.2299 187.96 30.3164 187.527 30.5586 187.166C30.8609 186.715 31.3662 186.446 31.9091 186.446C32.2318 186.446 32.5445 186.541 32.8136 186.721C39.0161 190.879 45.892 198.501 46.5878 207.427C46.8321 210.553 46.6483 213.321 46.4865 215.764C46.1714 220.478 45.9248 224.184 48.7756 228.211C51.0006 231.357 54.8175 233.669 58.8578 236.118C63.564 238.97 68.896 242.2 72.7282 247.405C76.2052 252.127 78.3469 258.627 80.4181 264.912C81.7398 268.921 83.1063 273.067 84.8016 276.721C86.313 279.975 89.1102 284.751 92.678 290.17L92.8846 290.483H89.0113Z" fill="#F09E9E"/>
<path d="M64.3074 253.895C59.4502 250.327 54.6668 247.325 49.9606 244.833L48.8951 257.228L45.8602 246.913C44.9449 243.802 42.6394 241.278 39.6125 240.117C26.6214 235.132 14.2704 233.927 2.64455 235.308C1.98734 250.473 17.4024 277.119 34.6612 290.283H94.7227C89.715 278.018 78.2442 264.131 64.3074 253.895Z" fill="url(#paint3_linear_254_6806)"/>
<path d="M73.8151 290.283H69.9285C66.1773 287.672 62.597 285.293 59.1236 283.03C58.4401 282.588 57.7638 282.147 57.0876 281.713C55.2442 280.517 53.4288 279.357 51.6351 278.204C44.2394 273.463 37.2566 268.985 30.5941 263.925L16.2371 263.405C15.938 263.391 15.6606 263.27 15.4613 263.049C15.2547 262.828 15.1551 262.544 15.1623 262.252C15.1837 261.654 15.6748 261.17 16.2584 261.17L27.5904 261.582C20.0166 255.518 13.7884 249.24 8.04422 241.908C7.85904 241.674 7.78084 241.382 7.81651 241.083C7.85203 240.791 8.00169 240.528 8.23612 240.343C8.42851 240.193 8.67768 240.108 8.91979 240.108C9.26857 240.108 9.58889 240.264 9.80237 240.535C22.686 256.992 36.6588 265.946 52.8382 276.324C54.2901 277.257 55.7851 278.218 57.3298 279.207C57.9704 279.627 58.6251 280.047 59.2869 280.474C63.7004 283.343 68.4267 286.475 73.3455 289.946L73.8151 290.283Z" fill="#F4D7FA"/>
<path d="M5.19165 152.045C5.19165 169.784 -6.60298 184.169 -21.1451 184.169V119.922C-6.60298 119.922 5.19165 134.307 5.19165 152.045Z" fill="#AEE8FA"/>
<path d="M25.8624 83.8193C10.58 93.5424 -6.97318 95.7205 -21.1451 91.0512V10.5742C-21.0455 10.5102 -20.9459 10.4461 -20.8463 10.382C3.65423 -5.20638 33.9771 -1.39826 46.8749 18.8811C59.7731 39.1605 50.3699 68.2381 25.8624 83.8193Z" fill="#F7B2B2"/>
<path d="M191.791 290.286H103.504C98.9188 290.286 95.2015 286.569 95.2015 281.984V86.9852C95.2015 82.3999 98.9188 78.6827 103.504 78.6827H191.791C196.377 78.6827 200.094 82.3999 200.094 86.9852V281.984C200.094 286.569 196.377 290.286 191.791 290.286Z" fill="#C6C6C6"/>
<path d="M196.678 290.286H108.391C103.805 290.286 100.088 286.569 100.088 281.984V86.9852C100.088 82.3999 103.805 78.6827 108.391 78.6827H196.678C201.264 78.6827 204.981 82.3999 204.981 86.9852V281.984C204.981 286.569 201.264 290.286 196.678 290.286Z" fill="white"/>
<path d="M196.445 286.174H108.624C106.444 286.174 104.676 284.407 104.676 282.227V86.7421C104.676 84.562 106.444 82.7943 108.624 82.7943H196.445C198.626 82.7943 200.393 84.562 200.393 86.7421V282.227C200.393 284.407 198.626 286.174 196.445 286.174Z" fill="url(#paint4_linear_254_6806)"/>
<path d="M166.598 90.1243H138.471C137.117 90.1243 135.985 89.094 135.857 87.7455L135 78.6827H170.069L169.212 87.7455C169.084 89.094 167.952 90.1243 166.598 90.1243Z" fill="white"/>
<path d="M188.848 129.772C191.906 136.338 191.655 142.933 188.287 144.501C184.92 146.07 179.711 142.018 176.652 135.452C173.594 128.885 173.845 122.291 177.212 120.722C180.58 119.154 185.789 123.205 188.848 129.772Z" fill="#EB4444"/>
<path d="M188.287 144.501L206.829 135.866L195.754 112.087L177.212 120.722L188.287 144.501Z" fill="#EA3838"/>
<path d="M195.711 141.044L201.922 138.152L216.529 156.461L210.319 159.353L195.711 141.044Z" fill="#622D2D"/>
<path d="M251.712 100.494C245.597 87.3631 235.182 79.2524 228.441 82.3923C227.588 82.7899 226.826 83.3504 226.175 84.0579C226.175 84.0579 207.356 106.682 195.753 112.086C192.386 113.654 192.136 120.251 195.194 126.816C198.251 133.382 203.462 137.435 206.829 135.867C218.432 130.463 247.859 130.617 247.859 130.617C248.82 130.574 249.739 130.351 250.593 129.954C257.334 126.814 257.828 113.624 251.712 100.494Z" fill="#C6C6C6"/>
<path d="M250.542 99.4145C255.98 113.215 254.66 126.666 247.574 129.456C246.674 129.809 245.723 129.98 244.737 129.969C244.737 129.969 214.668 127.986 202.471 132.793C201.389 133.215 200.172 133.097 198.917 132.527C197.528 130.997 196.238 129.059 195.194 126.816C192.136 120.251 192.386 113.654 195.753 112.086C207.353 106.684 226.175 84.0579 226.175 84.0579C226.826 83.3504 227.588 82.7899 228.441 82.3923C233.915 79.8426 241.818 84.7201 247.869 93.6757C247.886 93.6929 247.895 93.7129 247.904 93.7333C248.865 95.5123 249.751 97.4161 250.542 99.4145Z" fill="white"/>
<path d="M251.706 100.472C257.822 113.605 257.32 126.795 250.585 129.931C243.85 133.068 233.431 124.965 227.315 111.832C221.198 98.6986 221.7 85.5093 228.435 82.3723C235.171 79.2356 245.589 87.3391 251.706 100.472Z" fill="url(#paint5_linear_254_6806)"/>
<path d="M200.233 133.835L186.334 140.308C183.334 141.706 178.877 138.636 175.776 133.308C176.031 134.019 176.318 134.735 176.652 135.452C179.711 142.018 184.92 146.07 188.287 144.501L206.829 135.866C204.968 136.733 202.545 135.877 200.233 133.835Z" fill="url(#paint6_linear_254_6806)"/>
<path d="M232.016 102.725L237.33 114.134L230.338 117.39C229.252 115.678 228.237 113.818 227.322 111.853C226.407 109.888 225.635 107.914 225.024 105.981L232.016 102.725Z" fill="#D98282"/>
<path d="M237.598 107.067C239.066 110.219 238.946 113.384 237.329 114.137C235.713 114.89 233.212 112.945 231.744 109.793C230.276 106.641 230.397 103.476 232.013 102.723C233.63 101.97 236.13 103.915 237.598 107.067Z" fill="white"/>
<path d="M231.22 82.6886C230.376 82.7334 229.579 82.9272 228.852 83.2667C225.88 84.6497 224.158 88.314 224.003 93.5836C223.844 98.9512 225.334 105.295 228.198 111.445C233.269 122.332 241.513 129.992 247.801 129.66C248.65 129.615 249.453 129.42 250.187 129.077C253.101 127.721 254.813 124.118 255.011 118.934C255.217 113.52 253.736 107.115 250.841 100.899C247.946 94.6827 243.996 89.4275 239.72 86.1019C236.677 83.7356 233.738 82.5552 231.22 82.6886ZM247.988 131.564C240.893 131.94 231.835 123.821 226.45 112.259C220.119 98.6654 220.831 84.8747 228.037 81.5186C228.991 81.0742 230.026 80.8203 231.116 80.7627C234.105 80.6041 237.489 81.9238 240.903 84.5792C245.417 88.0902 249.567 93.5972 252.589 100.085C255.61 106.573 257.155 113.292 256.938 119.007C256.712 124.951 254.603 129.148 251.002 130.825C250.072 131.259 249.058 131.507 247.988 131.564Z" fill="#622D2D"/>
<path d="M235.374 108.103C235.726 108.859 235.697 109.619 235.309 109.8C234.921 109.98 234.321 109.514 233.969 108.757C233.616 108.001 233.645 107.241 234.033 107.06C234.421 106.88 235.021 107.346 235.374 108.103Z" fill="#D98282"/>
<path d="M251.706 100.472C248.265 93.0844 243.463 87.2883 238.721 84.1893C241.621 87.3063 244.336 91.331 246.509 95.9952C252.625 109.128 252.124 122.318 245.389 125.455C242.442 126.827 238.791 126.048 235.103 123.638C240.368 129.298 246.242 131.954 250.585 129.932C257.32 126.795 257.822 113.605 251.706 100.472Z" fill="#622D33"/>
<path d="M270.793 215.836C269.577 213.462 263.693 215.239 258.863 217.008C253.334 219.034 241.738 222.407 237.527 223.667C230.459 225.779 223.287 227.304 214.976 223.581C206.04 219.579 198.331 213.456 190.425 205.428C174.802 189.564 168.505 187.461 162.812 196.466C159.004 202.488 156.432 226.861 167.555 237.795C176.057 246.152 187.777 249.663 200 251.491C215.733 253.843 228.767 252.502 241.057 246.079C251.289 240.732 263.064 231.463 267.23 228.307C271.496 225.075 273.232 220.6 270.793 215.836Z" fill="url(#paint7_linear_254_6806)"/>
<path d="M241.092 241.37C235.607 244.134 231.213 246.362 224.454 245.53C220.544 245.053 216.302 242.605 211.561 241.787C206.885 240.979 202.296 242.22 197.654 241.646C189.711 240.663 186.604 232.195 180.497 228.057C176.246 225.181 165.955 223.195 160.778 224.639C161.958 229.687 164.096 234.392 167.555 237.795C176.059 246.155 187.778 249.661 200 251.494C215.735 253.84 228.765 252.501 241.056 246.077C247.07 242.935 253.624 238.433 258.846 234.614C254.666 233.737 243.848 239.977 241.092 241.37Z" fill="#312C2E"/>
<path d="M185.663 205.979C185.157 204.683 184.488 203.31 183.641 201.836C179.406 194.455 173.833 185.216 171.904 183.18C161.255 171.983 151.396 170.837 136.662 173.136C130.299 174.14 123.145 176.909 118.511 182.062C114.084 186.974 112.382 195.067 112.446 201.032C112.461 202.705 112.496 204.356 112.561 205.979C113.052 219.403 114.959 231.376 117.45 244.837C119.607 256.532 117.052 269.7 111.977 286.171H178.573C178.808 279.523 177.299 270.013 176.637 255.955C176.054 243.591 175.399 233.369 181.62 224.842C185.969 218.877 188.802 213.93 185.663 205.979Z" fill="url(#paint8_linear_254_6806)"/>
<path d="M113.016 213.801C113.835 224.201 115.45 234.038 117.443 244.829C119.607 256.539 117.045 269.707 111.97 286.171H131.865C133.438 260.966 134.669 215.915 113.016 213.801Z" fill="#312C2E"/>
<path d="M217.071 253.467C213.176 253.673 209.167 253.581 205.156 253.193C200.21 252.707 195.739 252.002 191.487 251.037C186.512 249.911 182.189 248.467 178.271 246.626C175.947 245.514 173.945 244.383 172.146 243.164C170.191 241.827 168.344 240.332 166.655 238.719C166.406 238.48 166.265 238.159 166.257 237.815C166.249 237.47 166.375 237.144 166.614 236.895C166.841 236.656 167.148 236.516 167.477 236.498C167.831 236.48 168.181 236.608 168.437 236.853C170.025 238.404 171.742 239.826 173.561 241.101C175.235 242.263 177.119 243.356 179.319 244.44C183.057 246.249 187.207 247.684 192.002 248.827C196.145 249.817 200.516 250.558 205.367 251.089C209.56 251.543 213.749 251.663 217.817 251.448C218.169 251.429 218.521 251.408 218.872 251.384C220.715 251.232 223.146 250.996 225.55 250.517C226.362 250.384 227.168 250.195 227.948 250.012C228.251 249.941 228.554 249.869 228.857 249.802L229.671 249.58C230.467 249.366 231.29 249.144 232.078 248.876C234.274 248.206 236.403 247.311 238.379 246.442C240.478 245.444 242.496 244.383 244.365 243.294C252.291 238.675 259.807 233.094 266.825 227.773C266.932 227.692 267.06 227.645 267.194 227.638C267.417 227.626 267.629 227.725 267.763 227.902C267.984 228.192 267.929 228.611 267.638 228.837C260.642 234.267 253.147 239.964 245.201 244.715C243.303 245.85 241.253 246.958 239.108 248.007C237.074 248.929 234.892 249.876 232.638 250.592C228.479 251.988 223.897 252.913 219.025 253.338C218.372 253.39 217.722 253.432 217.071 253.467Z" fill="#552D62"/>
<path d="M203.456 168.737C201.529 168.779 197.846 168.52 195.067 174.324C188.368 188.311 183.772 205.736 179.638 219.469C175.683 232.602 173.837 242.111 159.677 226.238C153.033 218.792 138.275 197.121 128.276 189.454C119.579 182.787 115.232 182.864 113.554 192.474C111.859 202.189 117.308 224.408 122.631 232.777C132.698 248.601 144.857 257.37 159.971 264.213C185.046 275.568 196.522 261.128 200.481 251.033C206.057 236.815 214.24 195.108 209.324 173.985C208.548 170.651 206.264 168.677 203.456 168.737Z" fill="url(#paint9_linear_254_6806)"/>
<path d="M199.668 243.728C197.992 247.915 196.435 252.268 193.736 255.967C187.772 264.131 179.835 263.047 171.101 259.903C167.163 258.479 162.994 258.266 159.111 257.174C154.56 255.897 150.125 252.347 147.18 248.888C144.707 245.983 142.947 242.733 139.44 240.802C134.93 238.325 131.78 237.002 128.48 232.85C127.405 231.503 120.411 221.338 116.756 218.274C118.457 224.172 120.564 229.52 122.634 232.775C132.697 248.601 144.86 257.373 159.971 264.213C185.047 275.567 196.521 261.13 200.483 251.034C201.889 247.445 203.327 242.251 204.619 236.11C201.941 237.698 200.757 241.005 199.668 243.728Z" fill="#312C2E"/>
<path d="M299.543 213.077C295.99 212.884 292.362 212.356 288.782 211.831C287.061 211.578 284.897 211.403 284.856 209.959C284.826 208.91 287.341 207.303 288.104 206.54C288.989 205.655 288.435 205.087 287.159 205.692C282.288 208.004 278.118 211.842 272.609 213.51C271.866 213.735 269.141 214.212 268.633 214.519C267.596 215.146 266.998 217.485 267.587 219.057C267.974 220.089 269.107 221.745 271.019 221.537C272.691 221.354 274.975 220.45 276.328 220.076C280.689 218.87 286.164 218.985 291.118 218.927C294.609 218.886 297.564 217.907 300.082 215.544C301.493 214.219 302.123 213.218 299.543 213.077Z" fill="#E89890"/>
<path d="M178.039 269.39C177.367 269.425 176.672 269.439 175.974 269.431C174.334 269.415 172.57 269.23 170.426 268.849C170.126 268.781 169.843 268.722 169.561 268.663C168.95 268.534 168.318 268.402 167.702 268.221L166.384 267.866L165.06 267.442C163.522 266.952 161.932 266.344 159.908 265.47C158.143 264.677 156.533 263.906 154.977 263.112C147.993 259.592 141.889 255.507 136.836 250.972C134.204 248.622 131.645 245.981 129.23 243.124C128.114 241.832 127.062 240.455 126.045 239.123L125.84 238.855L125.484 238.353C124.564 237.059 123.613 235.72 122.75 234.349C120.989 231.751 119.477 228.613 118.001 224.483C116.852 221.279 115.851 217.863 114.939 214.04C114.04 210.236 113.403 206.734 112.993 203.331C112.577 199.865 112.269 196.136 112.813 192.356C112.864 192.003 113.16 191.733 113.516 191.714L113.556 191.711L113.663 191.721C114.072 191.78 114.358 192.161 114.299 192.57C113.742 196.215 114.036 199.97 114.396 203.165C114.812 206.51 115.45 209.958 116.348 213.702C117.26 217.469 118.258 220.831 119.399 223.979C120.481 226.952 121.878 230.408 124.034 233.501C128.006 239.535 132.745 244.911 138.126 249.491C143.033 253.691 148.886 257.467 156.021 261.036C159.261 262.618 162.448 264.132 165.783 265.246L167.044 265.663L168.305 266.014C168.871 266.186 169.455 266.314 170.02 266.437C170.304 266.499 170.587 266.561 170.87 266.628C172.412 266.905 174.232 267.21 176.032 267.266C176.907 267.298 177.771 267.292 178.599 267.248H178.599C179.491 267.2 180.37 267.108 181.21 266.973C182.886 266.704 184.555 266.225 186.17 265.55C189.306 264.237 192.185 262.132 194.495 259.466C196.739 256.889 198.543 253.861 199.859 250.466C201.108 247.231 202.057 243.806 202.974 240.493L203.048 240.23C204.754 233.652 206.23 226.559 207.432 219.153C208.669 211.468 209.456 204.47 209.84 197.76C210.155 191.809 210.344 183.999 209.003 176.386C208.942 176.083 208.887 175.767 208.831 175.45C208.734 174.897 208.633 174.325 208.497 173.796C208.258 172.938 207.918 172.194 207.488 171.595C206.582 170.254 205.067 169.448 203.53 169.486C203.136 169.487 202.756 169.491 202.383 169.511C201.843 169.539 201.403 169.596 200.997 169.691C200.219 169.858 199.487 170.186 198.812 170.666C197.662 171.489 196.663 172.778 195.759 174.604C193.082 180.211 190.668 186.389 187.933 194.63C185.957 200.616 184.146 206.773 182.394 212.727L181.641 215.284L180.815 218.062C180.077 220.549 179.315 223.12 178.525 225.649C177.965 227.355 177.387 229.113 176.559 230.796C176.181 231.557 175.706 232.441 175.048 233.233C174.287 234.148 173.45 234.756 172.559 235.042C172.191 235.164 171.79 235.239 171.374 235.261C170.76 235.294 170.117 235.214 169.463 235.025C168.518 234.766 167.685 234.299 166.845 233.801C165.109 232.699 163.624 231.356 162.522 230.308C159.628 227.542 157.137 224.493 155.289 222.145C153.574 219.971 151.881 217.784 150.189 215.596C147.519 212.145 144.758 208.578 141.962 205.141C141.824 204.972 141.761 204.759 141.783 204.542C141.806 204.325 141.911 204.13 142.08 203.993C142.215 203.883 142.378 203.82 142.552 203.81C142.811 203.797 143.064 203.909 143.228 204.11C146.03 207.579 148.787 211.167 151.452 214.637C153.133 216.826 154.813 219.012 156.512 221.181C158.32 223.495 160.757 226.498 163.574 229.211C165.125 230.698 166.378 231.721 167.636 232.526C168.368 232.963 169.1 233.379 169.873 233.59C170.38 233.738 170.861 233.801 171.31 233.777C171.587 233.762 171.852 233.714 172.098 233.633C172.722 233.438 173.332 232.987 173.916 232.291C174.48 231.619 174.906 230.83 175.248 230.146C176.028 228.571 176.612 226.843 177.143 225.207C177.928 222.69 178.693 220.104 179.433 217.602L180.243 214.871L181 212.294C182.748 206.336 184.556 200.176 186.535 194.169C189.284 185.865 191.716 179.631 194.42 173.956C195.454 171.868 196.573 170.439 197.946 169.453C198.773 168.861 199.714 168.44 200.668 168.235C201.149 168.123 201.689 168.051 202.314 168.018C202.718 167.997 203.119 167.993 203.51 167.991C204.588 167.986 205.612 168.236 206.471 168.711C207.314 169.153 208.092 169.853 208.712 170.73C209.241 171.468 209.656 172.368 209.944 173.403C210.1 174.008 210.205 174.601 210.306 175.175C210.362 175.487 210.417 175.799 210.48 176.112C211.853 183.884 211.669 191.808 211.355 197.844C210.973 204.608 210.185 211.657 208.945 219.396C207.722 226.96 206.282 233.903 204.542 240.627L204.46 240.926C203.537 244.264 202.584 247.714 201.309 251.027C199.956 254.618 198.09 257.826 195.765 260.559C193.217 263.534 190.162 265.865 186.927 267.3C185.189 268.078 183.383 268.644 181.561 268.98C180.435 269.188 179.25 269.326 178.039 269.39Z" fill="black"/>
<path d="M212.71 148.338C211.664 144.784 210.629 140.461 208.348 140.505C207.243 140.525 206.103 140.989 204.841 141.806C205.215 142.715 203.692 146.529 200.437 146.963C199.123 145.24 198.396 146.291 198.661 149.573C198.861 152.05 200.85 155.544 200.925 158.472C201.008 161.695 198.353 167.569 197.978 170.932C197.613 174.202 201.371 175.082 203.272 174.787C205.538 174.436 207.49 172.602 208.276 169.182C208.908 166.434 209.429 162.955 210.439 159.485C211.777 154.887 213.798 152.033 212.71 148.338Z" fill="#E89890"/>
<path d="M209.545 168.092C205.977 170.122 199.741 168.641 198.467 165.337L196.639 170.775C196.728 172.454 198.096 174.111 199.632 175.002C201.944 176.342 207.313 175.75 209.37 174.186L209.545 168.092Z" fill="white"/>
<path d="M273.522 222.589C270.426 220.667 269.342 217.061 269.97 213.33L263.331 215.415C262.223 220.663 266.628 226.063 270.313 226.501L273.522 222.589Z" fill="white"/>
<path d="M175.604 268.24C172.533 268.402 164.091 267.146 158.953 265.558C143.54 260.8 130.683 254.232 118.737 239.981C118.387 239.565 117.042 237.861 115.937 236.38C113.946 224.624 112.569 213.57 112.447 201.032C112.422 198.416 112.733 195.392 113.465 192.403C113.635 205.423 117.271 221.048 125.223 232.559C135.784 247.874 144.332 255.163 158.744 262.404C163.079 264.583 170.58 267.451 175.604 268.24Z" fill="black"/>
<path d="M119.308 256.055C119.237 258.368 119.031 260.752 118.696 263.194C117.664 270.753 115.806 277.999 113.343 286.171H110.589C112.938 278.697 115.159 270.81 116.34 262.86C116.675 260.581 116.888 258.34 116.988 256.176C117.109 253.819 117.087 251.549 116.924 249.364C116.753 247.157 116.369 245.028 115.97 242.765L115.955 242.651C115.557 240.381 115.165 238.11 114.796 235.839C113.073 225.305 112.112 216.571 111.77 208.328C111.735 207.538 111.699 206.748 111.678 205.979C111.628 204.349 111.6 202.79 111.592 201.402C111.571 199.025 111.77 196.661 112.205 194.384C112.66 191.942 113.329 189.664 114.205 187.614C115.159 185.33 116.418 183.286 117.949 181.564C118.084 181.407 118.269 181.322 118.468 181.315C118.668 181.3 118.86 181.372 119.009 181.499C119.316 181.763 119.344 182.24 119.081 182.547C117.664 184.176 116.518 186.077 115.657 188.22C114.845 190.177 114.226 192.348 113.827 194.676C113.436 196.861 113.265 199.117 113.308 201.374C113.336 202.769 113.379 204.335 113.45 205.979C113.479 206.719 113.514 207.467 113.557 208.228C113.991 216.407 115.037 225.062 116.86 235.49C117.244 237.754 117.657 240.01 118.077 242.267L118.098 242.374C118.518 244.587 118.952 246.879 119.152 249.186C119.337 251.385 119.394 253.684 119.308 256.055Z" fill="#552D62"/>
<path d="M140.606 153.505C134.164 155.697 124.647 155.526 116.497 148.934C111.863 145.198 107.307 139.325 100.958 139.731C89.1065 140.486 85.5831 155.171 70.4859 152.771C66.5777 152.152 62.9049 150.764 59.552 148.835C55.8224 146.693 51.1458 147.497 48.2202 150.651C38.2765 161.377 24.3176 168.395 8.55838 169.228C-2.11156 169.798 -12.2832 167.456 -21.1451 162.886V59.0763C-14.0556 55.432 -6.0906 53.1898 2.38719 52.7413C21.7696 51.7163 39.4224 60.2723 50.7755 74.2592C53.6727 77.8322 58.5487 79.2136 62.8409 77.5552C64.4352 76.9358 66.108 76.4229 67.8377 76.0385C90.3449 70.9992 106.489 83.7833 116.283 96.4176C120.355 101.657 126.619 103.301 132.541 103.159C139.623 102.988 158.422 103.927 161.497 122.776C164.465 140.998 152.685 149.398 140.606 153.505Z" fill="url(#paint10_linear_254_6806)"/>
<path d="M161.497 122.776C161.212 120.99 160.771 119.366 160.223 117.886C158.799 119.608 159.269 123.281 157.525 128.014C155.632 133.154 152.051 137.93 146.934 139.745C138.897 142.599 132.106 142.408 124.077 139.625C116.475 136.99 111.5 134.5 103.392 135.46C94.9718 136.464 91.3631 142.443 82.0168 143.005C70.564 143.703 62.969 134.926 54.4703 138.101C43.3442 142.265 40.3905 152.159 22.218 156.153C5.46207 159.832 -10.1835 153.889 -21.1451 146.059V162.886C-12.2832 167.456 -2.11156 169.798 8.55838 169.228C24.3176 168.395 38.2765 161.377 48.2202 150.651C51.1386 147.497 55.8224 146.693 59.552 148.835C62.9049 150.764 66.5709 152.152 70.4859 152.771C85.5759 155.171 89.0993 140.486 100.958 139.731C107.307 139.325 111.863 145.198 116.497 148.934C124.647 155.526 134.164 155.697 140.606 153.505C152.685 149.398 164.465 140.998 161.497 122.776Z" fill="url(#paint11_linear_254_6806)"/>
<path d="M160.746 177.077C158.613 174.947 154.639 173.746 154.595 171.097C154.52 166.566 155.053 157.729 155.069 153.697C155.084 150.122 153.356 148.595 149.746 146.888C145.439 144.852 144.446 146.563 143.366 153.894C142.715 158.312 141.803 166.718 140.07 170.062C138.644 172.813 138.657 172.338 136.078 172.917C133.99 173.387 134.017 176.296 135.093 178.362C138.034 184.005 152.136 192.012 161.813 188.735C166.78 187.054 164.51 179.744 160.746 177.077Z" fill="url(#paint12_linear_254_6806)"/>
<path d="M155.07 153.696C155.065 155.75 154.918 159.044 154.796 162.379C150.235 163.333 145.54 159.341 143.134 155.519C143.218 154.937 143.296 154.391 143.369 153.895C144.449 146.561 145.442 144.854 149.748 146.886C153.353 148.598 155.08 150.125 155.07 153.696Z" fill="#E89890"/>
<path d="M160.199 143.35C159.856 139.984 158.424 138.493 157.965 136.251C157.107 132.065 157.038 130.536 155.435 128.307C154.262 126.676 152.929 125.814 151.562 125.474C151.309 127.002 150.898 128.582 150.301 130.169C147.91 136.53 143.431 140.974 139.406 141.44C139.985 149.835 145.558 153.8 150.496 155.041C153.246 155.732 156.9 156.039 158.775 153.087C159.712 151.611 160.599 147.26 160.199 143.35Z" fill="#FFD1D1"/>
<path d="M140.828 141.679C141.612 143.632 141.18 145.644 139.862 146.173C138.543 146.703 136.839 145.548 136.055 143.595C135.271 141.643 135.704 139.631 137.022 139.101C138.34 138.572 140.044 139.726 140.828 141.679Z" fill="#FFD1D1"/>
<path d="M160.639 189.068C153.222 188.123 144.817 184.186 141.203 179.88C135.768 173.405 139.719 170.705 140.031 170.136C138.354 170.394 136.312 170.65 134.961 172.503C133.328 174.742 134.842 179.743 138.519 185.278C142.521 191.303 151.999 197.781 159.689 200.314C159.975 198.477 160.478 191.661 160.639 189.068Z" fill="white"/>
<path d="M160.639 189.068C167.229 185.933 163.589 180.438 161.733 178.346C160.032 176.428 157.985 175.086 156.459 174.096C154.698 172.953 154.645 172.409 154.604 170.841C154.588 170.252 158.132 172.137 162.309 175.197C165.693 177.677 168.472 180.792 169.527 183.473C171.208 187.75 171.478 191.299 170.585 195.873C168.082 193.987 164.11 190.976 160.639 189.068Z" fill="white"/>
<path d="M157.952 145.66C158.185 145.988 156.959 147.477 155.019 147.841C152.142 148.379 150.622 147.552 150.688 147.22C150.772 146.801 151.625 146.579 154.293 145.906C156.529 145.341 157.667 145.258 157.952 145.66Z" fill="white"/>
<path d="M517.361 288.176C517.361 285.841 372.807 285.223 246.814 285.223C120.822 285.223 18.6847 285.841 18.6847 288.176L23.8404 295.992H23.8432C24.001 298.322 123.129 299.151 245.321 299.151C398.725 299.151 494.638 292.188 504.248 291.039C509.489 290.415 517.361 289.462 517.361 288.176Z" fill="#622D2D"/>
<defs>
<linearGradient id="paint0_linear_254_6806" x1="47.2388" y1="223.017" x2="108.325" y2="223.017" gradientUnits="userSpaceOnUse">
<stop stop-color="#B85353"/>
<stop offset="1" stop-color="#B85353"/>
</linearGradient>
<linearGradient id="paint1_linear_254_6806" x1="54.0611" y1="227.89" x2="85.1711" y2="227.89" gradientUnits="userSpaceOnUse">
<stop stop-color="#B85353"/>
<stop offset="1" stop-color="#B85353"/>
</linearGradient>
<linearGradient id="paint2_linear_254_6806" x1="83.0606" y1="296.028" x2="23.0259" y2="192.045" gradientUnits="userSpaceOnUse">
<stop stop-color="#994545"/>
<stop offset="1" stop-color="#B85353"/>
</linearGradient>
<linearGradient id="paint3_linear_254_6806" x1="86.5803" y1="293.077" x2="4.82492" y2="245.876" gradientUnits="userSpaceOnUse">
<stop stop-color="#D17B7B"/>
<stop offset="1" stop-color="#E48686"/>
</linearGradient>
<linearGradient id="paint4_linear_254_6806" x1="97.2592" y1="280.224" x2="207.81" y2="88.7445" gradientUnits="userSpaceOnUse">
<stop stop-color="#FF8080"/>
<stop offset="1" stop-color="#FFB921"/>
</linearGradient>
<linearGradient id="paint5_linear_254_6806" x1="224.822" y1="108.403" x2="254.199" y2="103.901" gradientUnits="userSpaceOnUse">
<stop stop-color="#B85359"/>
<stop offset="1" stop-color="#B85353"/>
</linearGradient>
<linearGradient id="paint6_linear_254_6806" x1="178.933" y1="140.348" x2="203.572" y2="128.873" gradientUnits="userSpaceOnUse">
<stop stop-color="#D93D40"/>
<stop offset="1" stop-color="#B85353"/>
</linearGradient>
<linearGradient id="paint7_linear_254_6806" x1="157.892" y1="215.572" x2="268.098" y2="238.971" gradientUnits="userSpaceOnUse">
<stop stop-color="#171717"/>
<stop offset="1" stop-color="#1D1D1D"/>
</linearGradient>
<linearGradient id="paint8_linear_254_6806" x1="99.3288" y1="265.656" x2="189.115" y2="210.302" gradientUnits="userSpaceOnUse">
<stop/>
<stop offset="1" stop-color="#2F2F2F"/>
</linearGradient>
<linearGradient id="paint9_linear_254_6806" x1="206.427" y1="240.85" x2="92.6303" y2="138.503" gradientUnits="userSpaceOnUse">
<stop stop-color="#131313"/>
<stop offset="1" stop-color="#202020"/>
</linearGradient>
<linearGradient id="paint10_linear_254_6806" x1="136.307" y1="110.985" x2="-46.799" y2="110.985" gradientUnits="userSpaceOnUse">
<stop stop-color="#2C2C2C"/>
<stop offset="0.00097341" stop-color="#302F30"/>
<stop offset="1" stop-color="#1C1C1C"/>
</linearGradient>
<linearGradient id="paint11_linear_254_6806" x1="162.595" y1="139.414" x2="-21.871" y2="149.186" gradientUnits="userSpaceOnUse">
<stop stop-color="#161516"/>
<stop offset="0.514573" stop-color="#2D2C2E"/>
<stop offset="1" stop-color="#171717"/>
</linearGradient>
<linearGradient id="paint12_linear_254_6806" x1="150.476" y1="198.059" x2="148.154" y2="154.227" gradientUnits="userSpaceOnUse">
<stop stop-color="#F0A19A"/>
<stop offset="1" stop-color="#FFD1D1"/>
</linearGradient>
</defs>
</svg>
